<?xml version="1.0" encoding="UTF-8" standalone="no"?>
<!-- Created with Inkscape (http://www.inkscape.org/) -->

<svg
   xmlns:dc="http://purl.org/dc/elements/1.1/"
   xmlns:cc="http://creativecommons.org/ns#"
   xmlns:rdf="http://www.w3.org/1999/02/22-rdf-syntax-ns#"
   xmlns:svg="http://www.w3.org/2000/svg"
   xmlns="http://www.w3.org/2000/svg"
   xmlns:sodipodi="http://sodipodi.sourceforge.net/DTD/sodipodi-0.dtd"
   xmlns:inkscape="http://www.inkscape.org/namespaces/inkscape"
   width="800"
   height="600"
   viewBox="0 0 211.66666 158.75"
   version="1.1"
   id="svg8"
   inkscape:version="0.92.3 (2405546, 2018-03-11)"
   sodipodi:docname="ui.svg"
   inkscape:export-filename="C:\Users\jonat\Documents\code\crayon\tomb\source\images\ankh.png"
   inkscape:export-xdpi="954.927"
   inkscape:export-ydpi="954.927">
  <defs
     id="defs2" />
  <sodipodi:namedview
     id="base"
     pagecolor="#ffffff"
     bordercolor="#666666"
     borderopacity="1.0"
     inkscape:pageopacity="0.0"
     inkscape:pageshadow="2"
     inkscape:zoom="4.7443877"
     inkscape:cx="76.42825"
     inkscape:cy="513.79685"
     inkscape:document-units="mm"
     inkscape:current-layer="layer1"
     showgrid="false"
     units="px"
     inkscape:window-width="1920"
     inkscape:window-height="1017"
     inkscape:window-x="1912"
     inkscape:window-y="-8"
     inkscape:window-maximized="1"
     inkscape:snap-global="true" />
  <metadata
     id="metadata5">
    <rdf:RDF>
      <cc:Work
         rdf:about="">
        <dc:format>image/svg+xml</dc:format>
        <dc:type
           rdf:resource="http://purl.org/dc/dcmitype/StillImage" />
        <dc:title />
      </cc:Work>
    </rdf:RDF>
  </metadata>
  <g
     inkscape:label="Layer 1"
     inkscape:groupmode="layer"
     id="layer1"
     transform="translate(0,-138.24998)">
    <path
       style="color:#000000;font-style:normal;font-variant:normal;font-weight:normal;font-stretch:normal;font-size:medium;line-height:normal;font-family:sans-serif;font-variant-ligatures:normal;font-variant-position:normal;font-variant-caps:normal;font-variant-numeric:normal;font-variant-alternates:normal;font-feature-settings:normal;text-indent:0;text-align:start;text-decoration:none;text-decoration-line:none;text-decoration-style:solid;text-decoration-color:#000000;letter-spacing:normal;word-spacing:normal;text-transform:none;writing-mode:lr-tb;direction:ltr;text-orientation:mixed;dominant-baseline:auto;baseline-shift:baseline;text-anchor:start;white-space:normal;shape-padding:0;clip-rule:nonzero;display:inline;overflow:visible;visibility:visible;opacity:1;isolation:auto;mix-blend-mode:normal;color-interpolation:sRGB;color-interpolation-filters:linearRGB;solid-color:#000000;solid-opacity:1;vector-effect:none;fill:#ffd100;fill-opacity:1;fill-rule:nonzero;stroke:#000000;stroke-width:0.5291667;stroke-linecap:butt;stroke-linejoin:miter;stroke-miterlimit:4;stroke-dasharray:none;stroke-dashoffset:0;stroke-opacity:1;color-rendering:auto;image-rendering:auto;shape-rendering:auto;text-rendering:auto;enable-background:accumulate"
       d="m 6.6466228,140.40024 c -1.458138,0 -2.6108244,0.87313 -2.7269654,2.09961 -0.087963,0.92893 0.3818253,1.92652 1.421102,2.82205 L 3.5692912,145.13898 3.569,146.81298 6.1102799,146.55748 5.836,149.97174 h 1.863 l -0.2742799,-3.41426 2.5410794,0.2555 v -1.674 l -1.7714682,0.18292 c 1.0392769,-0.89553 1.5090655,-1.89312 1.4211019,-2.82205 -0.1161402,-1.22648 -1.2688266,-2.09961 -2.7269654,-2.09961 -0.040841,0 -0.080539,0.003 -0.1209228,0.005 -0.040384,-0.001 -0.080082,-0.005 -0.1209222,-0.005 z m 0.1209228,1.16574 c 1.0005383,0.0379 1.4513748,0.4257 1.5444544,1.04549 0.088799,0.59128 -0.2621705,1.39163 -1.544,2.28451 -1.28183,-0.89288 -1.6337987,-1.69323 -1.545,-2.28451 0.093081,-0.61979 0.5440079,-1.00754 1.5445456,-1.04549 z"
       id="ankh"
       inkscape:connector-curvature="0"
       sodipodi:nodetypes="scccccccccccsscsccccc"
       inkscape:label="ankh"
       inkscape:export-filename="C:\Users\jonat\Documents\code\crayon\tomb\source\images\ankh.png"
       inkscape:export-xdpi="95.557968"
       inkscape:export-ydpi="95.557968" />
    <g
       id="sundial"
       inkscape:label="sundial"
       inkscape:export-filename="C:\Users\jonat\Documents\code\crayon\tomb\source\images\sundial.png"
       inkscape:export-xdpi="95.25"
       inkscape:export-ydpi="95.25">
      <path
         transform="scale(-1)"
         d="m -25.236985,-143.86656 a 5.871047,6.1176643 0 0 1 5.871047,-6.11767 5.871047,6.1176643 0 0 1 5.871047,6.11767 h -5.871047 z"
         sodipodi:end="0"
         sodipodi:start="3.1415927"
         sodipodi:ry="6.1176643"
         sodipodi:rx="5.871047"
         sodipodi:cy="-143.86656"
         sodipodi:cx="-19.365938"
         sodipodi:type="arc"
         id="path854"
         style="opacity:0.98999999;fill:#ffd100;fill-opacity:1;stroke:#000000;stroke-width:1.05833328;stroke-linecap:round;stroke-linejoin:miter;stroke-miterlimit:4;stroke-dasharray:none;stroke-dashoffset:0;stroke-opacity:1;paint-order:stroke fill markers" />
      <path
         transform="scale(-1)"
         d="m -24.396136,-143.86656 a 5.0301981,5.206758 0 0 1 5.030198,-5.20676 5.0301981,5.206758 0 0 1 5.030198,5.20676 h -5.030198 z"
         sodipodi:end="0"
         sodipodi:start="3.1415927"
         sodipodi:ry="5.206758"
         sodipodi:rx="5.0301981"
         sodipodi:cy="-143.86656"
         sodipodi:cx="-19.365938"
         sodipodi:type="arc"
         id="path854-5"
         style="opacity:0.98999999;fill:#ffd100;fill-opacity:1;stroke:#000000;stroke-width:0.529;stroke-linecap:round;stroke-linejoin:miter;stroke-miterlimit:4;stroke-dasharray:none;stroke-dashoffset:0;stroke-opacity:1;paint-order:stroke fill markers" />
      <path
         inkscape:connector-curvature="0"
         id="path871"
         d="m 19.365938,149.11443 v -5.24787 l -3.641801,3.6418"
         style="fill:none;stroke:#000000;stroke-width:0.26458332px;stroke-linecap:butt;stroke-linejoin:miter;stroke-opacity:1" />
      <path
         inkscape:connector-curvature="0"
         id="path873"
         d="m 22.981188,147.48181 -3.61525,-3.61525 4.96028,1.3291"
         style="fill:none;stroke:#000000;stroke-width:0.26458332px;stroke-linecap:butt;stroke-linejoin:miter;stroke-opacity:1" />
      <path
         inkscape:connector-curvature="0"
         id="path875"
         d="m 23.776046,146.41274 -4.410108,-2.54618 1.354995,5.05691"
         style="fill:none;stroke:#000000;stroke-width:0.26458332px;stroke-linecap:butt;stroke-linejoin:miter;stroke-opacity:1" />
      <path
         inkscape:connector-curvature="0"
         id="path877"
         d="m 21.951221,148.3444 -2.585283,-4.47784 -1.358769,5.07099"
         style="fill:none;stroke:#000000;stroke-width:0.26458332px;stroke-linecap:butt;stroke-linejoin:miter;stroke-opacity:1" />
      <path
         inkscape:connector-curvature="0"
         id="path879"
         d="m 16.753871,148.39079 2.612067,-4.52423 -4.445721,2.56674"
         style="fill:none;stroke:#000000;stroke-width:0.26458332px;stroke-linecap:butt;stroke-linejoin:miter;stroke-opacity:1" />
      <path
         inkscape:connector-curvature="0"
         id="path881"
         d="m 19.365938,143.86656 -4.912306,1.31625"
         style="fill:none;stroke:#000000;stroke-width:0.26458332px;stroke-linecap:butt;stroke-linejoin:miter;stroke-opacity:1" />
      <path
         transform="scale(-1)"
         d="m -20.794679,-143.86656 a 1.4287412,1.3052919 0 0 1 1.428741,-1.30529 1.4287412,1.3052919 0 0 1 1.428741,1.30529 h -1.428741 z"
         sodipodi:end="0"
         sodipodi:start="3.1415927"
         sodipodi:ry="1.3052919"
         sodipodi:rx="1.4287412"
         sodipodi:cy="-143.86656"
         sodipodi:cx="-19.365938"
         sodipodi:type="arc"
         id="path854-5-4"
         style="opacity:0.98999999;fill:#ffd100;fill-opacity:1;stroke:#000000;stroke-width:0.52899998;stroke-linecap:round;stroke-linejoin:miter;stroke-miterlimit:4;stroke-dasharray:none;stroke-dashoffset:0;stroke-opacity:1;paint-order:stroke fill markers" />
      <circle
         r="0.31419274"
         cy="144.51921"
         cx="19.365938"
         id="path898"
         style="opacity:0.98999999;fill:#000000;fill-opacity:1;stroke:none;stroke-width:0.52899992;stroke-linecap:round;stroke-linejoin:miter;stroke-miterlimit:4;stroke-dasharray:none;stroke-dashoffset:0;stroke-opacity:1;paint-order:stroke fill markers" />
    </g>
    <g
       id="pass"
       transform="translate(-7.0586289,0.12232412)"
       inkscape:label="pass"
       inkscape:export-filename="C:\Users\jonat\Documents\code\crayon\tomb\source\images\pass.png"
       inkscape:export-xdpi="96"
       inkscape:export-ydpi="96">
      <rect
         y="156.19858"
         x="7.5923266"
         height="12.333539"
         width="17.112667"
         id="rect912"
         style="opacity:0.98999999;fill:#ffd100;fill-opacity:1;stroke:#000000;stroke-width:1.05833328;stroke-linecap:round;stroke-linejoin:miter;stroke-miterlimit:4;stroke-dasharray:none;stroke-dashoffset:0;stroke-opacity:1;paint-order:stroke fill markers"
         inkscape:label="#rect912" />
      <g
         aria-label="Pass"
         style="font-style:normal;font-weight:normal;font-size:4.23333311px;line-height:1.25;font-family:sans-serif;letter-spacing:0px;word-spacing:0px;fill:#000000;fill-opacity:1;stroke:none;stroke-width:0.26458332"
         id="text916">
        <g
           id="g948"
           transform="translate(-0.2644043)">
          <path
             inkscape:connector-curvature="0"
             id="path935"
             style="font-style:normal;font-variant:normal;font-weight:bold;font-stretch:normal;font-size:3.52777767px;font-family:VTCGoblinHand;-inkscape-font-specification:VTCGoblinHand;stroke-width:0.26458332"
             d="m 12.558724,160.16242 q -0.0035,0 -0.0247,0 -0.02117,0 -0.04586,-0.007 -0.02469,-0.007 -0.04939,-0.0212 -0.02469,-0.0141 -0.03175,-0.0423 -0.01764,-0.06 -0.03175,-0.16933 -0.01058,-0.10936 -0.01764,-0.22578 -0.0035,-0.11995 -0.0035,-0.22578 0.0035,-0.10583 0.01058,-0.15522 0.0035,-0.0176 0.05644,-0.0106 0.05645,0.007 0.123473,0.0212 0.07055,0.0106 0.130527,0.0212 0.0635,0.0106 0.08467,0 0.232833,0.0176 0.419806,-0.0247 0.186972,-0.0423 0.331611,-0.10936 0.144639,-0.0705 0.246944,-0.14816 0.102306,-0.0811 0.162278,-0.13759 0.02469,-0.0212 0.04586,-0.0564 0.02117,-0.0353 0.03881,-0.0706 0.01764,-0.0353 0.02822,-0.0635 0.01058,-0.0317 0.01058,-0.0423 0.01058,-0.10583 -0.01058,-0.21519 -0.02117,-0.10937 -0.07408,-0.20462 -0.05292,-0.0988 -0.137583,-0.17638 -0.08467,-0.0811 -0.194028,-0.127 -0.04586,-0.0353 -0.151694,-0.0635 -0.102306,-0.0282 -0.239889,-0.0459 -0.134056,-0.0176 -0.289278,-0.0282 -0.151694,-0.0141 -0.292805,-0.0212 -0.137584,-0.007 -0.254,-0.007 -0.112889,0 -0.169334,0.004 -0.05292,-0.007 -0.116416,-0.007 -0.05997,-0.004 -0.116417,0.007 -0.05292,0.007 -0.08819,0.0247 -0.03528,0.0176 -0.03175,0.0529 0.0035,0.0282 0.03528,0.0423 0.03528,0.0141 0.05292,0.0529 0.01764,0.0388 0.02117,0.1023 0.0035,0.06 0.01764,0.1517 0.0035,0.0176 0.0035,0.0988 0.0035,0.0776 0.01058,0.24694 0.0071,0.15522 0,0.30339 -0.0071,0.14817 0,0.34925 0.0035,0.11289 0,0.23636 0,0.11995 -0.0071,0.23989 -0.0035,0.11642 -0.01411,0.21872 -0.0071,0.10231 -0.02117,0.16934 -0.0071,0.0247 -0.04233,0.0423 -0.03175,0.0176 -0.05997,0.0282 -0.01764,0.007 -0.02117,0.0176 -0.0035,0.007 -0.0035,0.0176 0.0035,0.0106 0.0071,0.0176 0.0035,0.007 0,0.0106 0.05292,0 0.134056,0 0.08114,-0.004 0.162277,-0.007 0.08114,-0.004 0.155222,-0.004 0.07408,-0.004 0.112889,-0.004 0.04586,0 0.04939,0.004 0.0071,0 0.0071,0.004 0,0.004 0.01058,0.007 0.01058,0 0.05997,0 z m -0.225778,-1.69334 q 0,-0.0317 0,-0.0882 0,-0.06 0,-0.12347 0,-0.0635 0,-0.11289 0.0035,-0.0529 0.01058,-0.0706 0.01058,-0.0353 0.02822,-0.0564 0.01764,-0.0212 0.03528,-0.0247 0.119945,-0.0141 0.28575,-0.004 0.169334,0.0106 0.335139,0.0388 0.169333,0.0247 0.303389,0.0635 0.137583,0.0388 0.194028,0.0847 0.134055,0.10936 0.186972,0.2293 0.05644,0.11642 0.03881,0.23284 -0.01764,0.11288 -0.109362,0.21519 -0.09172,0.10231 -0.250472,0.18344 -0.05997,0.0318 -0.137583,0.06 -0.07761,0.0247 -0.162278,0.0459 -0.08467,0.0212 -0.172861,0.0318 -0.08467,0.007 -0.162278,0 -0.05644,-0.004 -0.119944,-0.0176 -0.05997,-0.0176 -0.116417,-0.0318 -0.05644,-0.0176 -0.105833,-0.0317 -0.04586,-0.0141 -0.07056,-0.0212 0,-0.0811 0,-0.12347 0,-0.0459 0,-0.0882 0,-0.0423 -0.0035,-0.10231 0,-0.0635 -0.0035,-0.18344 z" />
          <path
             id="path937"
             style="font-style:normal;font-variant:normal;font-weight:bold;font-stretch:normal;font-size:3.52777767px;font-family:VTCGoblinHand;-inkscape-font-specification:VTCGoblinHand;stroke-width:0.26458332"
             d="m 15.492426,158.60667 q 0.05997,0.127 0.116417,0.25752 0.05997,0.13053 0.119945,0.25753 0.0035,0.0106 0.02822,0.0635 0.02822,0.0529 0.06703,0.13406 0.04233,0.0811 0.09525,0.17991 0.05292,0.0988 0.109361,0.20109 0.04586,0.0847 0.09172,0.1658 0.04586,0.0776 0.08467,0.14464 0.04233,0.0635 0.06703,0.10583 0.02822,0.0388 0.03175,0.0423 -0.03175,0.0106 -0.09172,0.0353 -0.05644,0.0212 -0.123472,0.0388 -0.06703,0.0176 -0.134056,0.0212 -0.0635,0.004 -0.116416,-0.0212 0.03528,-0.0705 0.0071,-0.14111 -0.02822,-0.0706 -0.06703,-0.15875 l -0.232833,-0.54328 -0.596194,-0.0353 q -0.148167,-0.007 -0.289278,0 -0.137583,0.007 -0.264583,0.0353 l -0.278695,0.54681 q -0.02822,0.0494 -0.04939,0.0882 -0.02117,0.0388 -0.03175,0.0882 -0.01764,0.067 -0.03175,0.0882 -0.01411,0.0176 -0.08114,0.0176 h -0.105833 q -0.123472,0 -0.155222,-0.0318 -0.03175,-0.0317 0.04233,-0.11289 0.02117,-0.0247 0.05644,-0.0741 0.03528,-0.0529 0.07408,-0.11642 0.0388,-0.0635 0.07761,-0.13405 0.04233,-0.0706 0.07761,-0.13406 l 0.137583,-0.22578 q -0.01764,0.0282 -0.03528,0 -0.01411,-0.0317 -0.01058,-0.0811 0.0071,-0.0494 0.04586,-0.0953 0.04233,-0.0494 0.134056,-0.0529 l 0.458611,-0.77964 q 0.0071,-0.0141 0.02117,-0.0423 0.01411,-0.0282 0.02822,-0.06 0.01764,-0.0318 0.02822,-0.06 0.01411,-0.0282 0.01411,-0.0459 0.0071,-0.06 0.01058,-0.10936 0.0071,-0.0529 0.01764,-0.0529 0.01764,0 0.07761,-0.0212 0.05997,-0.0247 0.123472,-0.0529 0.06703,-0.0282 0.123472,-0.0494 0.05645,-0.0212 0.06703,-0.0176 -0.0071,0.0423 0.0035,0.10583 0.01411,0.06 0.04586,0.10584 0.03528,0.0952 0.09172,0.23636 0.05997,0.14111 0.119944,0.28928 z m -0.02822,0.59972 -0.155222,-0.38453 q -0.119944,-0.28928 -0.28575,-0.53269 l -0.550333,0.90663 0.525639,0.0423 q 0.169333,0.007 0.289277,0 0.119945,-0.0106 0.176389,-0.0317 z"
             inkscape:connector-curvature="0" />
          <path
             id="path939"
             style="font-style:normal;font-variant:normal;font-weight:bold;font-stretch:normal;font-size:3.52777767px;font-family:VTCGoblinHand;-inkscape-font-specification:VTCGoblinHand;stroke-width:0.26458332"
             d="m 18.082201,158.72661 q 0.102306,0.004 0.172861,0.0141 0.07056,0.007 0.08114,0.0141 0.15875,0.0459 0.22225,0.14464 0.06703,0.0988 0.08114,0.21167 0.01764,0.11289 -0.0035,0.22578 -0.01764,0.11288 -0.02822,0.1905 -0.05997,0.17991 -0.15875,0.30338 -0.09878,0.12348 -0.218722,0.20462 -0.119945,0.0811 -0.246945,0.127 -0.123472,0.0459 -0.239888,0.067 -0.116417,0.0212 -0.208139,0.0247 -0.09172,0.007 -0.141111,0.007 -0.09525,0 -0.254,-0.0282 -0.155223,-0.0247 -0.310445,-0.0741 -0.09525,-0.0282 -0.183444,-0.0776 -0.08467,-0.0494 -0.148167,-0.10584 -0.0635,-0.06 -0.102306,-0.11994 -0.03528,-0.06 -0.03175,-0.11289 0.03175,-0.0353 0.06703,-0.0882 0.03881,-0.0529 0.06703,-0.0847 0.03175,-0.0317 0.05292,-0.0282 0.02117,0 0.02469,0.0705 0,0.0141 0.0247,0.0529 0.02822,0.0353 0.04233,0.0705 0.03175,0.0776 0.09878,0.13759 0.06703,0.0564 0.151694,0.0988 0.08467,0.0423 0.183445,0.0705 0.09878,0.0247 0.1905,0.0423 0.09172,0.0141 0.169333,0.0212 0.07761,0.004 0.127,0.004 0.22225,0 0.363361,-0.0811 0.144639,-0.0811 0.229306,-0.18344 0.08819,-0.10584 0.123472,-0.19756 0.03528,-0.0952 0.0388,-0.11994 0.01058,-0.0706 0.01058,-0.1517 0,-0.0811 -0.0247,-0.15522 -0.02117,-0.0741 -0.07408,-0.13053 -0.05292,-0.0564 -0.148167,-0.0776 -0.04939,-0.0106 -0.15875,-0.0176 -0.105833,-0.0106 -0.22225,-0.0176 -0.112889,-0.007 -0.215194,-0.0141 -0.09878,-0.007 -0.130528,-0.0141 -0.02822,-0.004 -0.08114,-0.007 -0.05292,-0.007 -0.127,-0.0247 -0.07055,-0.0176 -0.15875,-0.0529 -0.08467,-0.0388 -0.172861,-0.10936 -0.02117,-0.0141 -0.04939,-0.0353 -0.02469,-0.0212 -0.04939,-0.0459 -0.02469,-0.0282 -0.04586,-0.0635 -0.02117,-0.0388 -0.02822,-0.0882 -0.01764,-0.11289 0.01764,-0.20461 0.0388,-0.0952 0.119944,-0.17286 0.07761,-0.0741 0.183445,-0.13053 0.109361,-0.0565 0.236361,-0.0953 0.130528,-0.0388 0.275166,-0.0564 0.144639,-0.0212 0.292806,-0.0212 0.03528,0 0.08467,0 0.04939,0 0.09878,0 0.05292,0 0.09878,0.004 0.04939,0 0.08114,0.004 0.05645,0.007 0.0882,0.0106 0.03175,0.004 0.05292,0.007 0.02469,0.004 0.05292,0.0106 0.03175,0.004 0.08467,0.0141 0.0071,0.0423 0,0.0705 -0.0035,0.0247 -0.02469,0.0423 -0.01764,0.0176 -0.05292,0.0353 -0.03175,0.0141 -0.08467,0.0353 -0.02117,-0.0141 -0.07408,-0.0282 -0.05292,-0.0141 -0.116416,-0.0247 -0.0635,-0.0141 -0.119945,-0.0212 -0.05644,-0.007 -0.08114,-0.007 -0.05644,0 -0.137583,0.004 -0.07761,0 -0.165805,0.0106 -0.0882,0.007 -0.176389,0.0247 -0.08467,0.0141 -0.15875,0.0423 -0.02117,0.0106 -0.05997,0.0317 -0.03528,0.0176 -0.07408,0.0423 -0.03528,0.0247 -0.07055,0.0564 -0.03175,0.0282 -0.04939,0.0529 -0.02822,0.0423 -0.03175,0.1023 -0.0035,0.0564 0.03175,0.10936 0.0388,0.0565 0.123472,0.11289 0.08467,0.0529 0.186972,0.0811 0.0882,0.0247 0.194028,0.0388 0.105833,0.0106 0.211667,0.0176 0.109361,0.004 0.211666,0.007 0.105834,0 0.1905,0 z"
             inkscape:connector-curvature="0" />
          <path
             id="path941"
             style="font-style:normal;font-variant:normal;font-weight:bold;font-stretch:normal;font-size:3.52777767px;font-family:VTCGoblinHand;-inkscape-font-specification:VTCGoblinHand;stroke-width:0.26458332"
             d="m 20.411085,158.72661 q 0.102306,0.004 0.172861,0.0141 0.07056,0.007 0.08114,0.0141 0.15875,0.0459 0.22225,0.14464 0.06703,0.0988 0.08114,0.21167 0.01764,0.11289 -0.0035,0.22578 -0.01764,0.11288 -0.02822,0.1905 -0.05997,0.17991 -0.15875,0.30338 -0.09878,0.12348 -0.218722,0.20462 -0.119944,0.0811 -0.246944,0.127 -0.123473,0.0459 -0.239889,0.067 -0.116417,0.0212 -0.208139,0.0247 -0.09172,0.007 -0.141111,0.007 -0.09525,0 -0.254,-0.0282 -0.155223,-0.0247 -0.310445,-0.0741 -0.09525,-0.0282 -0.183444,-0.0776 -0.08467,-0.0494 -0.148167,-0.10584 -0.0635,-0.06 -0.102305,-0.11994 -0.03528,-0.06 -0.03175,-0.11289 0.03175,-0.0353 0.06703,-0.0882 0.03881,-0.0529 0.06703,-0.0847 0.03175,-0.0317 0.05292,-0.0282 0.02117,0 0.02469,0.0705 0,0.0141 0.02469,0.0529 0.02822,0.0353 0.04233,0.0705 0.03175,0.0776 0.09878,0.13759 0.06703,0.0564 0.151694,0.0988 0.08467,0.0423 0.183445,0.0705 0.09878,0.0247 0.1905,0.0423 0.09172,0.0141 0.169333,0.0212 0.07761,0.004 0.127,0.004 0.22225,0 0.363361,-0.0811 0.144639,-0.0811 0.229306,-0.18344 0.08819,-0.10584 0.123472,-0.19756 0.03528,-0.0952 0.0388,-0.11994 0.01058,-0.0706 0.01058,-0.1517 0,-0.0811 -0.0247,-0.15522 -0.02117,-0.0741 -0.07408,-0.13053 -0.05292,-0.0564 -0.148167,-0.0776 -0.04939,-0.0106 -0.15875,-0.0176 -0.105833,-0.0106 -0.22225,-0.0176 -0.112889,-0.007 -0.215194,-0.0141 -0.09878,-0.007 -0.130528,-0.0141 -0.02822,-0.004 -0.08114,-0.007 -0.05292,-0.007 -0.127,-0.0247 -0.07055,-0.0176 -0.15875,-0.0529 -0.08467,-0.0388 -0.172861,-0.10936 -0.02117,-0.0141 -0.04939,-0.0353 -0.02469,-0.0212 -0.04939,-0.0459 -0.02469,-0.0282 -0.04586,-0.0635 -0.02117,-0.0388 -0.02822,-0.0882 -0.01764,-0.11289 0.01764,-0.20461 0.0388,-0.0952 0.119944,-0.17286 0.07761,-0.0741 0.183445,-0.13053 0.109361,-0.0565 0.236361,-0.0953 0.130528,-0.0388 0.275167,-0.0564 0.144638,-0.0212 0.292805,-0.0212 0.03528,0 0.08467,0 0.04939,0 0.09878,0 0.05292,0 0.09878,0.004 0.04939,0 0.08114,0.004 0.05645,0.007 0.08819,0.0106 0.03175,0.004 0.05292,0.007 0.0247,0.004 0.05292,0.0106 0.03175,0.004 0.08467,0.0141 0.0071,0.0423 0,0.0705 -0.0035,0.0247 -0.0247,0.0423 -0.01764,0.0176 -0.05292,0.0353 -0.03175,0.0141 -0.08467,0.0353 -0.02117,-0.0141 -0.07408,-0.0282 -0.05292,-0.0141 -0.116417,-0.0247 -0.0635,-0.0141 -0.119945,-0.0212 -0.05644,-0.007 -0.08114,-0.007 -0.05645,0 -0.137584,0.004 -0.07761,0 -0.165805,0.0106 -0.08819,0.007 -0.176389,0.0247 -0.08467,0.0141 -0.15875,0.0423 -0.02117,0.0106 -0.05997,0.0317 -0.03528,0.0176 -0.07408,0.0423 -0.03528,0.0247 -0.07056,0.0564 -0.03175,0.0282 -0.04939,0.0529 -0.02822,0.0423 -0.03175,0.1023 -0.0035,0.0564 0.03175,0.10936 0.0388,0.0565 0.123472,0.11289 0.08467,0.0529 0.186972,0.0811 0.08819,0.0247 0.194028,0.0388 0.105833,0.0106 0.211667,0.0176 0.109361,0.004 0.211666,0.007 0.105834,0 0.1905,0 z"
             inkscape:connector-curvature="0" />
        </g>
      </g>
      <g
         transform="translate(3.9634295,1.7845647)"
         id="g940">
        <rect
           style="opacity:0.98999999;fill:#ffd100;fill-opacity:1;stroke:#000000;stroke-width:1.05833328;stroke-linecap:round;stroke-linejoin:miter;stroke-miterlimit:4;stroke-dasharray:none;stroke-dashoffset:0;stroke-opacity:1;paint-order:stroke fill markers"
           id="rect918"
           width="9.3131971"
           height="1.4778426"
           x="7.5286322"
           y="160.17407" />
        <path
           style="fill:#000900;fill-opacity:1;stroke:none;stroke-width:0.26458332px;stroke-linecap:butt;stroke-linejoin:miter;stroke-opacity:1"
           d="m 11.538115,161.95021 c -0.48613,1.0586 -0.656688,1.46182 -1.261175,2.63604 -0.422736,0.11811 -1.0981813,0.88026 -1.5200565,0.65782 -0.402657,-0.2123 -0.6617662,0.22318 -0.3433299,0.42311 0.6320986,0.39686 1.8376154,-0.1532 2.0703134,-0.11132 0.378556,0.0681 0.467399,0.24188 0.82685,0.11132 0.278391,-0.10112 -0.02279,-0.68202 0.09905,-0.88352 0.361531,-0.59787 1.580748,-1.84575 1.572516,-2.8808 z"
           id="path920"
           inkscape:connector-curvature="0"
           sodipodi:nodetypes="ccssssscc" />
        <path
           style="fill:#000900;fill-opacity:1;stroke:none;stroke-width:0.26458332px;stroke-linecap:butt;stroke-linejoin:miter;stroke-opacity:1"
           d="m 12.911573,162.04924 c 0.20396,0.9403 1.315585,1.81672 1.913825,2.63604 -0.422736,0.11811 -1.098181,0.88026 -1.520056,0.65782 -0.402657,-0.2123 -0.661767,0.22318 -0.34333,0.42311 0.632098,0.39686 1.837615,-0.1532 2.070313,-0.11132 0.378556,0.0681 0.467399,0.24188 0.82685,0.11132 0.278391,-0.10112 0.117271,-0.64875 0.09905,-0.88352 -0.05252,-0.67674 -1.692836,-2.3781 -1.602484,-2.8808 z"
           id="path920-4"
           inkscape:connector-curvature="0"
           sodipodi:nodetypes="ccssssscc" />
      </g>
    </g>
    <g
       transform="translate(13.156212,0.12232412)"
       id="refresh"
       inkscape:label="refresh"
       inkscape:export-filename="C:\Users\jonat\Documents\code\crayon\tomb\source\images\refresh.png"
       inkscape:export-xdpi="96"
       inkscape:export-ydpi="96">
      <rect
         y="156.19858"
         x="7.5923266"
         height="12.333539"
         width="17.112942"
         id="rect912-9"
         style="opacity:0.98999999;fill:#ffd100;fill-opacity:1;stroke:#000000;stroke-width:1.05833328;stroke-linecap:round;stroke-linejoin:miter;stroke-miterlimit:4;stroke-dasharray:none;stroke-dashoffset:0;stroke-opacity:1;paint-order:stroke fill markers" />
      <text
         id="text916-3"
         y="159.75977"
         x="7.7656069"
         style="font-style:normal;font-weight:normal;font-size:4.23333311px;line-height:1.25;font-family:sans-serif;letter-spacing:0px;word-spacing:0px;fill:#000000;fill-opacity:1;stroke:none;stroke-width:0.26458332"
         xml:space="preserve"><tspan
           style="font-style:normal;font-variant:normal;font-weight:bold;font-stretch:normal;font-size:3.17499995px;font-family:VTCGoblinHand;-inkscape-font-specification:VTCGoblinHand;letter-spacing:0.22225003px;stroke-width:0.26458332"
           y="159.75977"
           x="7.7656069"
           id="tspan914-8"
           sodipodi:role="line">Refresh</tspan></text>
      <g
         aria-label="𓈗"
         transform="matrix(1.6082175,0,0,0.88667216,-0.86858115,-25.64236)"
         style="font-style:normal;font-weight:normal;font-size:8.92013931px;line-height:1.25;font-family:sans-serif;letter-spacing:0px;word-spacing:0px;fill:#000000;fill-opacity:1;stroke:none;stroke-width:0.22156876"
         id="text881">
        <g
           id="g933"
           transform="translate(0.51117485,-0.36006103)"
           style="stroke-width:0.22156876">
          <path
             inkscape:connector-curvature="0"
             id="path907"
             d="m 6.7814593,213.09635 0.6119112,-1.2416 0.422936,0.69093 0.4139406,-0.67015 0.4814282,0.68053 0.4184393,-0.68053 0.4904274,0.68573 0.49043,-0.68573 0.413939,0.68053 0.485929,-0.68053 0.413937,0.68053 0.48593,-0.68053 0.409439,0.67015 0.422939,-0.69093 0.616409,1.2416"
             style="fill:none;stroke:#000000;stroke-width:0.42098066;stroke-linecap:butt;stroke-linejoin:miter;stroke-miterlimit:4;stroke-dasharray:none;stroke-opacity:1" />
          <path
             inkscape:connector-curvature="0"
             id="path907-4"
             d="m 6.7814593,215.46421 0.6119102,-1.2416 0.4229365,0.69093 0.4139409,-0.67015 0.4814279,0.68054 0.4184398,-0.68054 0.4904274,0.68574 0.49043,-0.68574 0.413939,0.68054 0.485929,-0.68054 0.413937,0.68054 0.48593,-0.68054 0.409439,0.67015 0.422939,-0.69093 0.616409,1.2416"
             style="font-style:normal;font-weight:normal;font-size:8.92013931px;line-height:1.25;font-family:sans-serif;letter-spacing:0px;word-spacing:0px;fill:none;fill-opacity:1;stroke:#000000;stroke-width:0.42098066;stroke-linecap:butt;stroke-linejoin:miter;stroke-miterlimit:4;stroke-dasharray:none;stroke-opacity:1" />
          <path
             inkscape:connector-curvature="0"
             id="path907-45"
             d="m 6.7814599,217.83207 0.6119102,-1.24159 0.4229365,0.69092 0.4139409,-0.67014 0.4814279,0.68053 0.4184398,-0.68053 0.4904263,0.68573 0.4904295,-0.68573 0.413939,0.68053 0.485929,-0.68053 0.413937,0.68053 0.48593,-0.68053 0.409439,0.67014 0.422939,-0.69092 0.616409,1.24159"
             style="font-style:normal;font-weight:normal;font-size:8.92013931px;line-height:1.25;font-family:sans-serif;letter-spacing:0px;word-spacing:0px;fill:none;fill-opacity:1;stroke:#000000;stroke-width:0.42098066;stroke-linecap:butt;stroke-linejoin:miter;stroke-miterlimit:4;stroke-dasharray:none;stroke-opacity:1" />
        </g>
      </g>
    </g>
  </g>
</svg>
